<svg width="73" height="73" viewBox="0 0 73 73" fill="none" xmlns="http://www.w3.org/2000/svg"><style>@media (prefers-color-scheme:light){.path{fill:#8b1232}.bg{fill:rgba(255,255,255,0)}}</style><path class="bg" fill="#8b1232" d="M0 0h73v73H0z"/><path d="M28.3 40.49c.335.558.893.78 1.562.78 1.004 0 1.562-.892 1.562-.892L47.49 19.962c1.338-1.339 2.566-.223 2.566-.223 1.227 1.338.334 2.566.334 2.566l-3.57 4.574c-.334.335-.446.78-.446 1.227 0 .446.111.781.446 1.116l3.57 4.574 11.268-14.392-4.462-5.801-.781-1.116c-.781-1.004-2.343-1.339-2.343-1.339h-6.806c-1.785 0-2.789 1.228-2.789 1.228L25.4 36.696l2.9 3.794ZM27.52 27.995l-4.463-5.802c-.893-1.45.446-2.566.446-2.566 1.674-1.004 2.678.558 2.678.558l3.793 4.797 4.463-5.69-5.132-6.582c-1.228-1.785-3.124-1.45-3.124-1.45h-6.136c-2.009 0-2.79 1.227-2.79 1.227L11.9 19.293 23.17 33.685l4.35-5.69Z" class="path" fill="#fff"/><path d="M45.035 32.904s-.558-.781-1.562-.781-1.45.669-1.45.669L25.957 53.543c-1.338 1.45-2.677.335-2.677.335-1.227-1.339-.223-2.566-.223-2.566l3.57-4.686c.334-.335.446-.78.446-1.227 0-.447-.112-.781-.446-1.116l-3.57-4.574-11.38 14.503 6.36 8.033h9.928l19.97-25.548-2.9-3.794ZM45.816 45.399l4.574 5.913c1.004 1.45-.223 2.566-.223 2.566-1.785 1.227-2.79-.558-2.79-.558l-3.793-4.909-4.462 5.69 6.359 8.144h9.818l6.359-8.144-11.38-14.504-4.462 5.802ZM61.547 39.151a2.476 2.476 0 0 1-2.455-2.454 2.476 2.476 0 0 1 2.455-2.455A2.476 2.476 0 0 1 64 36.697a2.476 2.476 0 0 1-2.454 2.454Zm0-6.917c-2.566 0-4.575 2.008-4.575 4.574 0 2.455 2.009 4.574 4.575 4.574 2.566 0 4.574-2.008 4.574-4.574s-2.008-4.574-4.574-4.574ZM36.667 4.343a2.476 2.476 0 0 1 2.455 2.454 2.476 2.476 0 0 1-2.455 2.455 2.476 2.476 0 0 1-2.454-2.455 2.476 2.476 0 0 1 2.454-2.454Zm0 6.805c2.566 0 4.575-2.008 4.575-4.574C41.242 4.12 39.233 2 36.667 2c-2.566.112-4.574 2.12-4.574 4.686 0 2.454 2.008 4.462 4.574 4.462ZM9.334 36.697a2.476 2.476 0 0 1 2.455-2.455 2.476 2.476 0 0 1 2.454 2.455 2.476 2.476 0 0 1-2.454 2.454c-1.45 0-2.455-1.116-2.455-2.454Zm6.917 0c0-2.455-2.008-4.574-4.574-4.574s-4.574 2.008-4.574 4.574c0 2.454 2.008 4.574 4.574 4.574s4.574-2.008 4.574-4.574ZM36.667 69.274a2.476 2.476 0 0 1-2.454-2.455 2.476 2.476 0 0 1 2.454-2.454 2.476 2.476 0 0 1 2.455 2.454 2.476 2.476 0 0 1-2.455 2.455Zm0-7.029c-2.566 0-4.574 2.008-4.574 4.574 0 2.455 2.008 4.575 4.574 4.575s4.575-2.009 4.575-4.575c0-2.454-2.009-4.574-4.575-4.574Z" class="path" fill="#fff"/></svg>
